<svg xmlns="http://www.w3.org/2000/svg" viewBox="0 0 36 36"><defs><style>.a{fill:none;}.b{fill:#57bbc6;fill-rule:evenodd;}</style></defs><title>chillest</title><rect class="a" width="36" height="36"/><path class="b" d="M16.32,35.88c-4.43.78-7.88-2.42-8.84-7.83C5.69,17.86,13.27,2.45,19.2,1.4a4.7,4.7,0,0,1,4,1.34.18.18,0,0,0,.16.06.22.22,0,0,0,.16-.15c.34-.94.58-1.69.73-2A1,1,0,0,1,25,0c1.17-.21,3.13,1.33,3.34,2.55a.69.69,0,0,1-.08.5A55.23,55.23,0,0,0,23.95,16.9a.5.5,0,0,1-.43.41A2.51,2.51,0,0,1,21,15.13c-.37-2.07.72-6.62,1.73-9.9a.28.28,0,0,0,0-.13c0-.23-.48-.2-.74-.16-5.4,1-11.49,14.89-10.07,23,.6,3.41,2.36,4.61,4.76,4.19,4.31-.76,8-6,10.7-13.45,0-.09.06-.14.14-.15a1.59,1.59,0,0,1,1.28,1.07.45.45,0,0,1,0,.21c-1.49,5.79-5.91,14.95-12.45,16.1Z"/></svg>