<svg xmlns="http://www.w3.org/2000/svg" viewBox="0 0 36 36"><defs><style>.a{fill:#fcfcfd;}.b{fill:#3c3c3e;}.c{fill:#c02733;}.d{fill:#4b4b4c;}.e{fill:none;}</style></defs><title>dream</title><path class="a" d="M17.13,8.23A5.18,5.18,0,0,1,26.07,8a3.12,3.12,0,0,1,3.38.35,3,3,0,0,1,.89,3.35,7.24,7.24,0,0,1,5.26,4.71,7,7,0,0,1-.08,4.91,7.23,7.23,0,0,1-9.08,4.22,5.06,5.06,0,0,1-2.28,2.65,5.18,5.18,0,0,1-3.4.57,3.08,3.08,0,0,1-5.26.45,7.28,7.28,0,0,1-10.4-5.27A5.08,5.08,0,0,1,1,21.9a4.85,4.85,0,0,1-1-3.12,5,5,0,0,1,1.48-3.5A5.2,5.2,0,0,1,5,13.77,7.3,7.3,0,0,1,17.13,8.23ZM6.46,21.88H9.35V19.58h2.28V16.69H9.32V14.43H6.44v2.31H4.19v2.89H6.46v2.24Zm26.65-3.71a2,2,0,1,0-2,2A2,2,0,0,0,33.11,18.16Zm-6.7,2a2,2,0,1,0,0-3.93,2,2,0,1,0,0,3.93Zm-9.09.23H13.49v.83h3.83Zm.77.83H22v-.84H18.09Z"/><path class="b" d="M6.46,21.88V19.64H4.19V16.74H6.44V14.43H9.32v2.26h2.31v2.89H9.35v2.29Z"/><path class="c" d="M33.11,18.16a2,2,0,1,1-1.93-2A2,2,0,0,1,33.11,18.16Z"/><path class="c" d="M26.41,20.12a2,2,0,1,1,0-3.93,2,2,0,1,1,0,3.93Z"/><path class="d" d="M17.32,20.34v.83H13.49v-.83Z"/><path class="d" d="M18.09,21.17v-.84H22v.84Z"/><rect class="e" width="36" height="36"/></svg>