<svg xmlns="http://www.w3.org/2000/svg" viewBox="0 0 36 36"><defs><style>.a{fill:none;}.b{fill:#2aace2;}</style></defs><title>wigglers</title><rect class="a" width="36" height="36"/><path class="b" d="M31,0H5A4,4,0,0,0,1,4V32a4,4,0,0,0,4,4H31a4,4,0,0,0,4-4V4A4,4,0,0,0,31,0ZM29.93,29.55a1.53,1.53,0,0,1-1.46,1.34c-.4,0-.8,0-1.2,0H8.4a7.74,7.74,0,0,1-1-.05A1.57,1.57,0,0,1,6,29.32c0-.27,0-.54,0-.8Q6,17.62,6,6.72c0-.12,0-.24,0-.37A1.21,1.21,0,0,1,7.3,5.08c1.19,0,2.39,0,3.58,0A1.65,1.65,0,0,1,12.59,6.9c0,2,0,3.95,0,5.92q0,5.63,0,11.26c0,.93.32,1.25,1.25,1.24.3,0,.69.14.88-.06s.06-.58.06-.88q0-9.29,0-18.57c0-.38.1-.46.46-.45q2.85,0,5.7,0c.34,0,.44.07.44.43q0,9.2,0,18.39c0,.82.34,1.15,1.15,1.15s.89,0,.89-.89q0-8.56,0-17.11a4.9,4.9,0,0,1,0-.87,1.56,1.56,0,0,1,1.63-1.38c1.56,0,3.12,0,4.68,0,.28,0,.25.15.25.32q0,2.74,0,5.48v6.36Q30,23,30,28.68A5,5,0,0,1,29.93,29.55Z"/></svg>