<?xml version="1.0" encoding="UTF-8"?>
<svg width="176px" height="90px" viewBox="0 0 176 90" version="1.1" xmlns="http://www.w3.org/2000/svg" xmlns:xlink="http://www.w3.org/1999/xlink">
    <!-- Generator: Sketch 46.1 (44463) - http://www.bohemiancoding.com/sketch -->
    <title>logomark</title>
    <desc>Created with Sketch.</desc>
    <defs>
        <polygon id="path-1" points="0 90 176 90 176 0 0 0"></polygon>
    </defs>
    <g id="Page-1" stroke="none" stroke-width="1" fill="none" fill-rule="evenodd">
        <g id="tablet" transform="translate(-424.000000, -339.000000)">
            <g id="logomark" transform="translate(424.000000, 339.000000)">
                <polygon id="Fill-1" fill="#33404F" points="10 88 166 88 166 2 10 2"></polygon>
                <path d="M8,90 L168,90 L168,0 L8,0 L8,90 Z M12,86.001 L164,86.001 L164,4 L12,4 L12,86.001 Z" id="Fill-2" fill="#20303B"></path>
                <polygon id="Fill-3" fill="#20303B" points="12 54 164 54 164 50 12 50"></polygon>
                <polygon id="Fill-4" fill="#FFFFFE" points="19 79.5 157 79.5 157 10.5 19 10.5"></polygon>
                <g id="Group-94">
                    <path d="M157,8.5 C158.104,8.5 159,9.396 159,10.5 L159,79.5 C159,80.604 158.104,81.5 157,81.5 L19,81.5 C17.896,81.5 17,80.604 17,79.5 L17,10.5 C17,9.396 17.896,8.5 19,8.5 L157,8.5 Z M21,77.5 L155,77.5 L155,12.5 L21,12.5 L21,77.5 Z" id="Fill-5" fill="#20303B"></path>
                    <path d="M157.0059,68.5 L18.9999,68.5 C17.8959,68.5 16.9999,69.396 16.9999,70.5 L16.9999,79.5 C16.9999,80.604 17.8959,81.5 18.9999,81.5 L157.0059,81.5 C158.1099,81.5 159.0059,80.604 159.0059,79.5 L159.0059,70.5 C159.0059,69.396 158.1099,68.5 157.0059,68.5" id="Fill-7" fill="#3091C3"></path>
                    <path d="M150,74 L137,74 C136.447,74 136,73.552 136,73 C136,72.448 136.447,72 137,72 L150,72 C150.553,72 151,72.448 151,73 C151,73.552 150.553,74 150,74" id="Fill-9" fill="#FFFFFE"></path>
                    <path d="M128.0996,74 L115.0996,74 C114.5476,74 114.0996,73.552 114.0996,73 C114.0996,72.448 114.5476,72 115.0996,72 L128.0996,72 C128.6526,72 129.0996,72.448 129.0996,73 C129.0996,73.552 128.6526,74 128.0996,74" id="Fill-11" fill="#FFFFFE"></path>
                    <path d="M105.7002,74 L92.7002,74 C92.1472,74 91.7002,73.552 91.7002,73 C91.7002,72.448 92.1472,72 92.7002,72 L105.7002,72 C106.2522,72 106.7002,72.448 106.7002,73 C106.7002,73.552 106.2522,74 105.7002,74" id="Fill-13" fill="#FFFFFE"></path>
                    <path d="M39,74 L26,74 C25.448,74 25,73.552 25,73 C25,72.448 25.448,72 26,72 L39,72 C39.552,72 40,72.448 40,73 C40,73.552 39.552,74 39,74" id="Fill-15" fill="#FFFFFE"></path>
                    <path d="M60.8999,74 L47.8999,74 C47.3479,74 46.8999,73.552 46.8999,73 C46.8999,72.448 47.3479,72 47.8999,72 L60.8999,72 C61.4519,72 61.8999,72.448 61.8999,73 C61.8999,73.552 61.4519,74 60.8999,74" id="Fill-17" fill="#FFFFFE"></path>
                    <path d="M83.2998,74 L70.2998,74 C69.7478,74 69.2998,73.552 69.2998,73 C69.2998,72.448 69.7478,72 70.2998,72 L83.2998,72 C83.8518,72 84.2998,72.448 84.2998,73 C84.2998,73.552 83.8518,74 83.2998,74" id="Fill-19" fill="#FFFFFE"></path>
                    <path d="M157,8.5 L19,8.5 C17.896,8.5 17,9.396 17,10.5 L17,79.5 C17,80.604 17.896,81.5 19,81.5 L157,81.5 C158.104,81.5 159,80.604 159,79.5 L159,10.5 C159,9.396 158.104,8.5 157,8.5 L157,8.5 Z M21,77.5 L155,77.5 L155,12.5 L21,12.5 L21,77.5 Z" id="Fill-21" fill="#20303B"></path>
                    <mask id="mask-2" fill="white">
                        <use xlink:href="#path-1"></use>
                    </mask>
                    <g id="Clip-24"></g>
                    <polygon id="Fill-23" fill="#BBBFC1" mask="url(#mask-2)" points="21 54 155 54 155 12 21 12"></polygon>
                    <path d="M12,48 C10.897,48 10,47.103 10,46 L10,4 C10,2.897 10.897,2 12,2 L164,2 C165.103,2 166,2.897 166,4 L166,46 C166,47.103 165.103,48 164,48 L12,48 Z" id="Fill-25" fill="#606D83" mask="url(#mask-2)"></path>
                    <path d="M164,0 L12,0 C9.791,0 8,1.791 8,4 L8,46 C8,48.209 9.791,50 12,50 L164,50 C166.209,50 168,48.209 168,46 L168,4 C168,1.791 166.209,0 164,0 L164,0 Z M12,46 L164,46 L164,4 L12,4 L12,46 Z" id="Fill-26" fill="#546071" mask="url(#mask-2)"></path>
                    <polygon id="Fill-27" fill="#606D83" mask="url(#mask-2)" points="50 48 126 48 126 2 50 2"></polygon>
                    <path d="M48,50 L128,50 L128,0 L48,0 L48,50 Z M52,46 L124,46 L124,4 L52,4 L52,46 Z" id="Fill-28" fill="#546071" mask="url(#mask-2)"></path>
                    <path d="M67,28 C62.589,28 59,24.411 59,20 C59,15.589 62.589,12 67,12 C71.411,12 75,15.589 75,20 C75,24.411 71.411,28 67,28" id="Fill-29" fill="#4E616F" mask="url(#mask-2)"></path>
                    <path d="M67,11 C62.029,11 58,15.029 58,20 C58,24.971 62.029,29 67,29 C71.971,29 76,24.971 76,20 C76,15.029 71.971,11 67,11 M67,13 C70.86,13 74,16.14 74,20 C74,23.86 70.86,27 67,27 C63.14,27 60,23.86 60,20 C60,16.14 63.14,13 67,13" id="Fill-30" fill="#4E616F" mask="url(#mask-2)"></path>
                    <path d="M67,27 C62.589,27 59,23.411 59,19 C59,14.589 62.589,11 67,11 C71.411,11 75,14.589 75,19 C75,23.411 71.411,27 67,27" id="Fill-31" fill="#556071" mask="url(#mask-2)"></path>
                    <path d="M67,10 C62.029,10 58,14.029 58,19 C58,23.971 62.029,28 67,28 C71.971,28 76,23.971 76,19 C76,14.029 71.971,10 67,10 M67,12 C70.86,12 74,15.14 74,19 C74,22.86 70.86,26 67,26 C63.14,26 60,22.86 60,19 C60,15.14 63.14,12 67,12" id="Fill-32" fill="#33404F" mask="url(#mask-2)"></path>
                    <path d="M146,22 C143.243,22 141,19.757 141,17 C141,14.243 143.243,12 146,12 C148.757,12 151,14.243 151,17 C151,19.757 148.757,22 146,22" id="Fill-33" fill="#4E616F" mask="url(#mask-2)"></path>
                    <path d="M146,11 C142.687,11 140,13.687 140,17 C140,20.313 142.687,23 146,23 C149.313,23 152,20.313 152,17 C152,13.687 149.313,11 146,11 M146,13 C148.206,13 150,14.794 150,17 C150,19.206 148.206,21 146,21 C143.794,21 142,19.206 142,17 C142,14.794 143.794,13 146,13" id="Fill-34" fill="#4E616F" mask="url(#mask-2)"></path>
                    <path d="M146,21 C143.243,21 141,18.757 141,16 C141,13.243 143.243,11 146,11 C148.757,11 151,13.243 151,16 C151,18.757 148.757,21 146,21" id="Fill-35" fill="#546071" mask="url(#mask-2)"></path>
                    <path d="M146,10 C142.687,10 140,12.687 140,16 C140,19.313 142.687,22 146,22 C149.313,22 152,19.313 152,16 C152,12.687 149.313,10 146,10 M146,12 C148.206,12 150,13.794 150,16 C150,18.206 148.206,20 146,20 C143.794,20 142,18.206 142,16 C142,13.794 143.794,12 146,12" id="Fill-36" fill="#33404F" mask="url(#mask-2)"></path>
                    <path d="M146,39 C143.243,39 141,36.757 141,34 C141,31.243 143.243,29 146,29 C148.757,29 151,31.243 151,34 C151,36.757 148.757,39 146,39" id="Fill-37" fill="#4E616F" mask="url(#mask-2)"></path>
                    <path d="M146,28 C142.687,28 140,30.687 140,34 C140,37.313 142.687,40 146,40 C149.313,40 152,37.313 152,34 C152,30.687 149.313,28 146,28 M146,30 C148.206,30 150,31.794 150,34 C150,36.206 148.206,38 146,38 C143.794,38 142,36.206 142,34 C142,31.794 143.794,30 146,30" id="Fill-38" fill="#4E616F" mask="url(#mask-2)"></path>
                    <path d="M146,38 C143.243,38 141,35.757 141,33 C141,30.243 143.243,28 146,28 C148.757,28 151,30.243 151,33 C151,35.757 148.757,38 146,38" id="Fill-39" fill="#546071" mask="url(#mask-2)"></path>
                    <path d="M146,27 C142.687,27 140,29.687 140,33 C140,36.313 142.687,39 146,39 C149.313,39 152,36.313 152,33 C152,29.687 149.313,27 146,27 M146,29 C148.206,29 150,30.794 150,33 C150,35.206 148.206,37 146,37 C143.794,37 142,35.206 142,33 C142,30.794 143.794,29 146,29" id="Fill-40" fill="#33404F" mask="url(#mask-2)"></path>
                    <path d="M146,16 L146,16 C145.447,16 145,15.552 145,15 L145,12 C145,11.448 145.447,11 146,11 C146.553,11 147,11.448 147,12 L147,15 C147,15.552 146.553,16 146,16" id="Fill-41" fill="#FFFFFE" mask="url(#mask-2)"></path>
                    <path d="M146,33 L146,33 C145.609,32.609 145.609,31.976 146,31.586 L148.121,29.464 C148.512,29.074 149.146,29.074 149.535,29.464 C149.926,29.855 149.926,30.488 149.535,30.878 L147.414,33 C147.023,33.391 146.391,33.391 146,33" id="Fill-42" fill="#FFFFFE" mask="url(#mask-2)"></path>
                    <path d="M27,12 L21,12 C20.448,12 20,11.552 20,11 C20,10.448 20.448,10 21,10 L27,10 C27.552,10 28,10.448 28,11 C28,11.552 27.552,12 27,12" id="Fill-43" fill="#70819E" mask="url(#mask-2)"></path>
                    <path d="M40,12 L34,12 C33.448,12 33,11.552 33,11 C33,10.448 33.448,10 34,10 L40,10 C40.552,10 41,10.448 41,11 C41,11.552 40.552,12 40,12" id="Fill-44" fill="#70819E" mask="url(#mask-2)"></path>
                    <path d="M136,12 L135,12 C134.447,12 134,11.552 134,11 C134,10.448 134.447,10 135,10 L136,10 C136.553,10 137,10.448 137,11 C137,11.552 136.553,12 136,12" id="Fill-45" fill="#70819E" mask="url(#mask-2)"></path>
                    <path d="M136,17.3999 L135,17.3999 C134.447,17.3999 134,16.9519 134,16.3999 C134,15.8479 134.447,15.3999 135,15.3999 L136,15.3999 C136.553,15.3999 137,15.8479 137,16.3999 C137,16.9519 136.553,17.3999 136,17.3999" id="Fill-46" fill="#70819E" mask="url(#mask-2)"></path>
                    <path d="M136,22.7998 L135,22.7998 C134.447,22.7998 134,22.3518 134,21.7998 C134,21.2478 134.447,20.7998 135,20.7998 L136,20.7998 C136.553,20.7998 137,21.2478 137,21.7998 C137,22.3518 136.553,22.7998 136,22.7998" id="Fill-47" fill="#70819E" mask="url(#mask-2)"></path>
                    <path d="M136,28.2002 L135,28.2002 C134.447,28.2002 134,27.7522 134,27.2002 C134,26.6482 134.447,26.2002 135,26.2002 L136,26.2002 C136.553,26.2002 137,26.6482 137,27.2002 C137,27.7522 136.553,28.2002 136,28.2002" id="Fill-48" fill="#70819E" mask="url(#mask-2)"></path>
                    <path d="M136,33.6001 L135,33.6001 C134.447,33.6001 134,33.1521 134,32.6001 C134,32.0481 134.447,31.6001 135,31.6001 L136,31.6001 C136.553,31.6001 137,32.0481 137,32.6001 C137,33.1521 136.553,33.6001 136,33.6001" id="Fill-49" fill="#70819E" mask="url(#mask-2)"></path>
                    <path d="M136,39 L135,39 C134.447,39 134,38.552 134,38 C134,37.448 134.447,37 135,37 L136,37 C136.553,37 137,37.448 137,38 C137,38.552 136.553,39 136,39" id="Fill-50" fill="#70819E" mask="url(#mask-2)"></path>
                    <path d="M157,12 L156,12 C155.447,12 155,11.552 155,11 C155,10.448 155.447,10 156,10 L157,10 C157.553,10 158,10.448 158,11 C158,11.552 157.553,12 157,12" id="Fill-51" fill="#70819E" mask="url(#mask-2)"></path>
                    <path d="M157,17.3999 L156,17.3999 C155.447,17.3999 155,16.9519 155,16.3999 C155,15.8479 155.447,15.3999 156,15.3999 L157,15.3999 C157.553,15.3999 158,15.8479 158,16.3999 C158,16.9519 157.553,17.3999 157,17.3999" id="Fill-52" fill="#70819E" mask="url(#mask-2)"></path>
                    <path d="M157,22.7998 L156,22.7998 C155.447,22.7998 155,22.3518 155,21.7998 C155,21.2478 155.447,20.7998 156,20.7998 L157,20.7998 C157.553,20.7998 158,21.2478 158,21.7998 C158,22.3518 157.553,22.7998 157,22.7998" id="Fill-53" fill="#70819E" mask="url(#mask-2)"></path>
                    <path d="M157,28.2002 L156,28.2002 C155.447,28.2002 155,27.7522 155,27.2002 C155,26.6482 155.447,26.2002 156,26.2002 L157,26.2002 C157.553,26.2002 158,26.6482 158,27.2002 C158,27.7522 157.553,28.2002 157,28.2002" id="Fill-54" fill="#70819E" mask="url(#mask-2)"></path>
                    <path d="M157,33.6001 L156,33.6001 C155.447,33.6001 155,33.1521 155,32.6001 C155,32.0481 155.447,31.6001 156,31.6001 L157,31.6001 C157.553,31.6001 158,32.0481 158,32.6001 C158,33.1521 157.553,33.6001 157,33.6001" id="Fill-55" fill="#70819E" mask="url(#mask-2)"></path>
                    <path d="M157,39 L156,39 C155.447,39 155,38.552 155,38 C155,37.448 155.447,37 156,37 L157,37 C157.553,37 158,37.448 158,38 C158,38.552 157.553,39 157,39" id="Fill-56" fill="#70819E" mask="url(#mask-2)"></path>
                    <path d="M85,27 C83.346,27 82,25.654 82,24 L82,14 C82,12.346 83.346,11 85,11 L114,11 C115.654,11 117,12.346 117,14 L117,24 C117,25.654 115.654,27 114,27 L85,27 Z" id="Fill-57" fill="#21303B" mask="url(#mask-2)"></path>
                    <path d="M114,10 L85,10 C82.791,10 81,11.791 81,14 L81,24 C81,26.209 82.791,28 85,28 L114,28 C116.209,28 118,26.209 118,24 L118,14 C118,11.791 116.209,10 114,10 M114,12 C115.103,12 116,12.897 116,14 L116,24 C116,25.103 115.103,26 114,26 L85,26 C83.897,26 83,25.103 83,24 L83,14 C83,12.897 83.897,12 85,12 L114,12" id="Fill-58" fill="#33404F" mask="url(#mask-2)"></path>
                    <path d="M112.5,21.5 L86.5,21.5 C85.948,21.5 85.5,21.948 85.5,22.5 C85.5,23.052 85.948,23.5 86.5,23.5 L112.5,23.5 C113.053,23.5 113.5,23.052 113.5,22.5 C113.5,21.948 113.053,21.5 112.5,21.5" id="Fill-59" fill="#FFFFFE" mask="url(#mask-2)"></path>
                    <path d="M25.5,40 L22.5,40 C21.948,40 21.5,39.552 21.5,39 L21.5,17 C21.5,16.448 21.948,16 22.5,16 L25.5,16 C26.052,16 26.5,16.448 26.5,17 L26.5,39 C26.5,39.552 26.052,40 25.5,40" id="Fill-60" fill="#4E616F" mask="url(#mask-2)"></path>
                    <path d="M25.5,39 L22.5,39 C21.948,39 21.5,38.552 21.5,38 L21.5,16 C21.5,15.448 21.948,15 22.5,15 L25.5,15 C26.052,15 26.5,15.448 26.5,16 L26.5,38 C26.5,38.552 26.052,39 25.5,39" id="Fill-61" fill="#33404F" mask="url(#mask-2)"></path>
                    <path d="M38.5,40 L35.5,40 C34.948,40 34.5,39.552 34.5,39 L34.5,17 C34.5,16.448 34.948,16 35.5,16 L38.5,16 C39.052,16 39.5,16.448 39.5,17 L39.5,39 C39.5,39.552 39.052,40 38.5,40" id="Fill-62" fill="#4E616F" mask="url(#mask-2)"></path>
                    <path d="M38.5,39 L35.5,39 C34.948,39 34.5,38.552 34.5,38 L34.5,16 C34.5,15.448 34.948,15 35.5,15 L38.5,15 C39.052,15 39.5,15.448 39.5,16 L39.5,38 C39.5,38.552 39.052,39 38.5,39" id="Fill-63" fill="#33404F" mask="url(#mask-2)"></path>
                    <path d="M73,39 C72.449,39 72,38.551 72,38 L72,35 C72,34.449 72.449,34 73,34 L78,34 C78.551,34 79,34.449 79,35 L79,38 C79,38.551 78.551,39 78,39 L73,39 Z" id="Fill-64" fill="#4E616F" mask="url(#mask-2)"></path>
                    <path d="M78,33 L73,33 C71.896,33 71,33.896 71,35 L71,38 C71,39.104 71.896,40 73,40 L78,40 C79.104,40 80,39.104 80,38 L80,35 C80,33.896 79.104,33 78,33 L78,33 Z M73,38 L78,38 L78,35 L73,35 L73,38 Z" id="Fill-65" fill="#4E616F" mask="url(#mask-2)"></path>
                    <path d="M73,38 C72.449,38 72,37.551 72,37 L72,34 C72,33.449 72.449,33 73,33 L78,33 C78.551,33 79,33.449 79,34 L79,37 C79,37.551 78.551,38 78,38 L73,38 Z" id="Fill-66" fill="#45515E" mask="url(#mask-2)"></path>
                    <path d="M78,32 L73,32 C71.896,32 71,32.896 71,34 L71,37 C71,38.104 71.896,39 73,39 L78,39 C79.104,39 80,38.104 80,37 L80,34 C80,32.896 79.104,32 78,32 L78,32 Z M73,37 L78,37 L78,34 L73,34 L73,37 Z" id="Fill-67" fill="#45515E" mask="url(#mask-2)"></path>
                    <path d="M98,39 C97.448,39 97,38.551 97,38 L97,35 C97,34.449 97.448,34 98,34 L103,34 C103.552,34 104,34.449 104,35 L104,38 C104,38.551 103.552,39 103,39 L98,39 Z" id="Fill-68" fill="#4E616F" mask="url(#mask-2)"></path>
                    <path d="M103,33 L98,33 C96.896,33 96,33.896 96,35 L96,38 C96,39.104 96.896,40 98,40 L103,40 C104.104,40 105,39.104 105,38 L105,35 C105,33.896 104.104,33 103,33 L103,33 Z M98,38 L103,38 L103,35 L98,35 L98,38 Z" id="Fill-69" fill="#4E616F" mask="url(#mask-2)"></path>
                    <path d="M98,38 C97.448,38 97,37.551 97,37 L97,34 C97,33.449 97.448,33 98,33 L103,33 C103.552,33 104,33.449 104,34 L104,37 C104,37.551 103.552,38 103,38 L98,38 Z" id="Fill-70" fill="#45515E" mask="url(#mask-2)"></path>
                    <path d="M103,32 L98,32 C96.896,32 96,32.896 96,34 L96,37 C96,38.104 96.896,39 98,39 L103,39 C104.104,39 105,38.104 105,37 L105,34 C105,32.896 104.104,32 103,32 L103,32 Z M98,37 L103,37 L103,34 L98,34 L98,37 Z" id="Fill-71" fill="#45515E" mask="url(#mask-2)"></path>
                    <path d="M111,39 C110.448,39 110,38.551 110,38 L110,35 C110,34.449 110.448,34 111,34 L116,34 C116.552,34 117,34.449 117,35 L117,38 C117,38.551 116.552,39 116,39 L111,39 Z" id="Fill-72" fill="#4E616F" mask="url(#mask-2)"></path>
                    <path d="M116,33 L111,33 C109.896,33 109,33.896 109,35 L109,38 C109,39.104 109.896,40 111,40 L116,40 C117.104,40 118,39.104 118,38 L118,35 C118,33.896 117.104,33 116,33 L116,33 Z M111,38 L116,38 L116,35 L111,35 L111,38 Z" id="Fill-73" fill="#4E616F" mask="url(#mask-2)"></path>
                    <path d="M111,38 C110.448,38 110,37.551 110,37 L110,34 C110,33.449 110.448,33 111,33 L116,33 C116.552,33 117,33.449 117,34 L117,37 C117,37.551 116.552,38 116,38 L111,38 Z" id="Fill-74" fill="#45515E" mask="url(#mask-2)"></path>
                    <path d="M116,32 L111,32 C109.896,32 109,32.896 109,34 L109,37 C109,38.104 109.896,39 111,39 L116,39 C117.104,39 118,38.104 118,37 L118,34 C118,32.896 117.104,32 116,32 L116,32 Z M111,37 L116,37 L116,34 L111,34 L111,37 Z" id="Fill-75" fill="#45515E" mask="url(#mask-2)"></path>
                    <path d="M60,39 C59.449,39 59,38.551 59,38 L59,35 C59,34.449 59.449,34 60,34 L65,34 C65.551,34 66,34.449 66,35 L66,38 C66,38.551 65.551,39 65,39 L60,39 Z" id="Fill-76" fill="#4E616F" mask="url(#mask-2)"></path>
                    <path d="M65,33 L60,33 C58.896,33 58,33.896 58,35 L58,38 C58,39.104 58.896,40 60,40 L65,40 C66.104,40 67,39.104 67,38 L67,35 C67,33.896 66.104,33 65,33 L65,33 Z M60,38 L65,38 L65,35 L60,35 L60,38 Z" id="Fill-77" fill="#4E616F" mask="url(#mask-2)"></path>
                    <path d="M60,38 C59.449,38 59,37.551 59,37 L59,34 C59,33.449 59.449,33 60,33 L65,33 C65.551,33 66,33.449 66,34 L66,37 C66,37.551 65.551,38 65,38 L60,38 Z" id="Fill-78" fill="#45515E" mask="url(#mask-2)"></path>
                    <path d="M65,32 L60,32 C58.896,32 58,32.896 58,34 L58,37 C58,38.104 58.896,39 60,39 L65,39 C66.104,39 67,38.104 67,37 L67,34 C67,32.896 66.104,32 65,32 L65,32 Z M60,37 L65,37 L65,34 L60,34 L60,37 Z" id="Fill-79" fill="#45515E" mask="url(#mask-2)"></path>
                    <path d="M88,38 C86.622,38 85.5,36.878 85.5,35.5 C85.5,34.122 86.622,33 88,33 C89.379,33 90.5,34.122 90.5,35.5 C90.5,36.878 89.379,38 88,38" id="Fill-80" fill="#F1E970" mask="url(#mask-2)"></path>
                    <path d="M88,32 C86.067,32 84.5,33.567 84.5,35.5 C84.5,37.433 86.067,39 88,39 C89.933,39 91.5,37.433 91.5,35.5 C91.5,33.567 89.933,32 88,32 M88,34 C88.827,34 89.5,34.673 89.5,35.5 C89.5,36.327 88.827,37 88,37 C87.173,37 86.5,36.327 86.5,35.5 C86.5,34.673 87.173,34 88,34" id="Fill-81" fill="#33404F" mask="url(#mask-2)"></path>
                    <polygon id="Fill-82" fill="#33404F" mask="url(#mask-2)" points="2 88 10 88 10 2 2 2"></polygon>
                    <path d="M12,0 L2,0 C0.896,0 0,0.896 0,2 L0,88 C0,89.104 0.896,90 2,90 L12,90 L12,0 Z M4,86 L8,86 L8,4 L4,4 L4,86 Z" id="Fill-83" fill="#21303B" mask="url(#mask-2)"></path>
                    <polygon id="Fill-84" fill="#33404F" mask="url(#mask-2)" points="166 88 174 88 174 2 166 2"></polygon>
                    <path d="M174,0 L164,0 L164,90 L174,90 C175.104,90 176,89.104 176,88 L176,2 C176,0.896 175.104,0 174,0 L174,0 Z M168,86 L172,86 L172,4 L168,4 L168,86 Z" id="Fill-85" fill="#20303B" mask="url(#mask-2)"></path>
                    <path d="M67,11 C66.448,11 66,11.448 66,12 L66,19 C66,19.552 66.448,20 67,20 C67.552,20 68,19.552 68,19 L68,12 C68,11.448 67.552,11 67,11" id="Fill-86" fill="#FFFFFE" mask="url(#mask-2)"></path>
                    <path d="M64.5,37.5 L60.5,37.5 C60.224,37.5 60,37.276 60,37 C60,36.724 60.224,36.5 60.5,36.5 L64.5,36.5 C64.776,36.5 65,36.724 65,37 C65,37.276 64.776,37.5 64.5,37.5" id="Fill-87" fill="#FFFFFE" mask="url(#mask-2)"></path>
                    <path d="M77.5,37.5 L73.5,37.5 C73.224,37.5 73,37.276 73,37 C73,36.724 73.224,36.5 73.5,36.5 L77.5,36.5 C77.776,36.5 78,36.724 78,37 C78,37.276 77.776,37.5 77.5,37.5" id="Fill-88" fill="#FFFFFE" mask="url(#mask-2)"></path>
                    <path d="M102.5,37.5 L98.5,37.5 C98.224,37.5 98,37.276 98,37 C98,36.724 98.224,36.5 98.5,36.5 L102.5,36.5 C102.776,36.5 103,36.724 103,37 C103,37.276 102.776,37.5 102.5,37.5" id="Fill-89" fill="#FFFFFE" mask="url(#mask-2)"></path>
                    <path d="M115.5,37.5 L111.5,37.5 C111.224,37.5 111,37.276 111,37 C111,36.724 111.224,36.5 111.5,36.5 L115.5,36.5 C115.776,36.5 116,36.724 116,37 C116,37.276 115.776,37.5 115.5,37.5" id="Fill-90" fill="#FFFFFE" mask="url(#mask-2)"></path>
                    <polygon id="Fill-91" fill="#606D83" mask="url(#mask-2)" points="12 4 48 4 48 0 12 0"></polygon>
                    <polygon id="Fill-92" fill="#606D83" mask="url(#mask-2)" points="128 4 164 4 164 0 128 0"></polygon>
                    <polygon id="Fill-93" fill="#606D83" mask="url(#mask-2)" points="52 4 124 4 124 0 52 0"></polygon>
                </g>
            </g>
        </g>
    </g>
</svg>